<?xml version="1.0" encoding="UTF-8" standalone="no"?>
<!DOCTYPE svg PUBLIC "-//W3C//DTD SVG 1.1//EN" "http://www.w3.org/Graphics/SVG/1.1/DTD/svg11.dtd"><svg width="100%"
    height="100%" viewBox="0 0 2560 1440" version="1.1" xmlns="http://www.w3.org/2000/svg"
    xmlns:xlink="http://www.w3.org/1999/xlink" xml:space="preserve" xmlns:serif="http://www.serif.com/"
    style="fill-rule:evenodd;clip-rule:evenodd;stroke-linecap:round;stroke-miterlimit:1.5;">
    <rect x="-108.881" y="0" width="2777.76" height="1440" style="fill:#ee8900;" />
    <path
        d="M-61.221,1042.79l344.471,0c0,64.233 0.853,104.734 2.558,121.503c1.705,16.769 8.669,30.838 20.89,42.206c12.221,11.369 28.848,17.053 49.88,17.053c17.622,0 32.117,-5.4 43.485,-16.2c11.369,-10.8 17.764,-24.727 19.185,-41.78c1.421,-17.053 2.132,-51.443 2.132,-103.171l-0,-219.984c-17.053,36.948 -42.633,64.659 -76.739,83.133c-34.106,18.475 -76.454,27.712 -127.045,27.712c-63.096,-0 -118.803,-17.053 -167.12,-51.159c-48.317,-34.107 -79.012,-75.034 -92.086,-122.782c-13.074,-47.749 -19.611,-112.266 -19.611,-193.552l-0,-109.992c-0,-96.634 3.837,-168.541 11.511,-215.721c7.673,-47.18 27.427,-90.808 59.259,-130.882c31.832,-40.075 75.886,-71.197 132.161,-93.366c56.275,-22.169 121.645,-33.253 196.11,-33.253c92.086,-0 167.688,12.79 226.805,38.369c59.117,25.58 104.876,62.386 137.277,110.419c32.401,48.032 51.159,98.481 56.275,151.345c5.116,52.865 7.674,155.183 7.674,306.955l0,191.847c0,164.277 -2.274,274.127 -6.821,329.55c-4.548,55.422 -24.301,107.86 -59.26,157.314c-34.958,49.454 -82.28,86.544 -141.966,111.271c-59.686,24.727 -128.75,37.09 -207.194,37.09c-97.203,0 -176.641,-15.632 -238.317,-46.896c-61.675,-31.264 -106.013,-75.317 -133.013,-132.161c-27.001,-56.843 -40.501,-128.466 -40.501,-214.868Zm344.471,-430.589c0,57.98 7.532,93.792 22.595,107.434c15.064,13.642 30.554,20.464 46.47,20.464c23.874,-0 41.354,-8.669 52.438,-26.006c11.084,-17.337 16.627,-51.301 16.627,-101.892l-0,-249.827c-0,-60.823 -5.258,-100.613 -15.774,-119.371c-10.516,-18.759 -27.996,-28.138 -52.438,-28.138c-14.78,0 -30.127,7.248 -46.044,21.743c-15.916,14.495 -23.874,53.575 -23.874,117.239l0,258.354Z"
        style="fill:#fff;fill-rule:nonzero;" />
    <path
        d="M1696.95,496.243l-0,460.432c-0,104.592 -5.685,180.762 -17.053,228.511c-11.369,47.748 -34.959,92.371 -70.77,133.866c-35.812,41.496 -79.013,71.339 -129.603,89.529c-50.591,18.19 -107.15,27.285 -169.678,27.285c-82.423,-0 -150.92,-9.522 -205.489,-28.564c-54.57,-19.043 -98.055,-48.744 -130.456,-89.102c-32.401,-40.359 -55.422,-82.85 -69.065,-127.472c-13.642,-44.622 -20.463,-115.534 -20.463,-212.736l-0,-481.749c-0,-126.761 10.942,-221.689 32.827,-284.785c21.884,-63.097 65.37,-113.687 130.455,-151.772c65.086,-38.085 143.956,-57.128 236.611,-57.128c75.602,-0 143.246,13.216 202.931,39.648c59.686,26.432 104.308,58.691 133.867,96.776c29.558,38.085 49.596,81.002 60.112,128.751c10.516,47.748 15.774,123.918 15.774,228.51Zm-344.472,-115.96c0,-73.328 -3.552,-119.229 -10.658,-137.704c-7.105,-18.474 -23.732,-27.711 -49.88,-27.711c-25.579,0 -42.49,9.806 -50.733,29.417c-8.242,19.611 -12.363,64.943 -12.363,135.998l-0,673.595c-0,80.149 3.837,128.466 11.511,144.95c7.674,16.485 24.3,24.727 49.88,24.727c25.579,0 42.348,-9.663 50.306,-28.99c7.958,-19.327 11.937,-62.812 11.937,-130.456l0,-683.826Z"
        style="fill:#fff;fill-rule:nonzero;" />
    <path
        d="M2591.38,446.79l-333.386,-0l-0,-102.319c-0,-47.748 -4.264,-78.159 -12.79,-91.233c-8.527,-13.074 -22.738,-19.611 -42.633,-19.611c-21.6,-0 -37.943,8.81 -49.027,26.432c-11.085,17.621 -16.627,44.338 -16.627,80.149c-0,46.043 6.253,80.718 18.758,104.024c11.937,23.305 45.759,51.443 101.466,84.412c159.73,94.929 260.343,172.804 301.839,233.627c41.495,60.822 62.243,158.877 62.243,294.165c0,98.339 -11.511,170.814 -34.532,217.426c-23.022,46.611 -67.502,85.691 -133.44,117.239c-65.939,31.548 -142.677,47.322 -230.216,47.322c-96.066,0 -178.062,-18.189 -245.99,-54.569c-67.928,-36.38 -112.408,-82.707 -133.44,-138.982c-21.032,-56.275 -31.548,-136.141 -31.548,-239.596l-0,-90.381l333.387,0l-0,167.973c-0,51.727 4.689,84.981 14.068,99.76c9.379,14.779 26.006,22.169 49.88,22.169c23.875,-0 41.638,-9.379 53.291,-28.138c11.653,-18.758 17.479,-46.611 17.479,-83.559c0,-81.287 -11.084,-134.435 -33.253,-159.446c-22.737,-25.011 -78.728,-66.791 -167.972,-125.34c-89.245,-59.117 -148.362,-102.034 -177.352,-128.751c-28.99,-26.716 -53.006,-63.664 -72.049,-110.844c-19.043,-47.18 -28.564,-107.434 -28.564,-180.762c0,-105.729 13.501,-183.036 40.501,-231.922c27.001,-48.885 70.628,-87.112 130.882,-114.681c60.254,-27.569 133.014,-41.354 218.279,-41.354c93.223,-0 172.662,15.064 238.316,45.191c65.654,30.127 109.14,68.07 130.456,113.829c21.316,45.759 31.974,123.492 31.974,233.2l0,54.57Z"
        style="fill:#fff;fill-rule:nonzero;" />
    <g id="confetti">
        <path d="M2201.89,1087.33l1.455,95.893l23.425,-33.979l60.916,34.732"
            style="fill:none;stroke:#7607d2;stroke-width:12.5px;" />
        <path d="M2339.84,1153.8l1.455,-95.893l23.425,33.979l60.917,-34.733"
            style="fill:none;stroke:#7607d2;stroke-width:12.5px;" />
        <path d="M2573.49,1286.57l-11.521,-70.214l-23.424,33.979l-60.917,-34.732"
            style="fill:none;stroke:#7607d2;stroke-width:12.5px;" />
        <path d="M2440.72,1337.34l-1.455,95.893l-23.425,-33.979l-60.917,34.732"
            style="fill:none;stroke:#7607d2;stroke-width:12.5px;" />
        <path d="M2364.72,1119.53l101.414,46.361l7.559,-56.051l55.39,-0.449l45.197,-102.102"
            style="fill:none;stroke:#edd2f2;stroke-width:12.5px;" />
        <path d="M2538.54,1277.98l-101.414,46.36l-7.56,-56.051l-55.389,-0.449l-45.197,-102.101"
            style="fill:none;stroke:#edd2f2;stroke-width:12.5px;" />
        <path d="M2415.84,1371.6l-101.414,-46.36l-7.559,56.051l-55.39,0.449l-45.197,102.101"
            style="fill:none;stroke:#edd2f2;stroke-width:12.5px;" />
        <path
            d="M2086.35,1142.53l-0.15,-43.701l40.295,33.208l16.405,-38.343l-62.56,-35.369l-57.359,56.144l16.331,40.061"
            style="fill:none;stroke:#fe34a7;stroke-width:12.5px;" />
        <path d="M2556.27,1392.54l0.15,-43.701l-40.295,33.208l-16.405,-38.343l62.56,-35.368l57.359,56.144l-16.331,40.06"
            style="fill:none;stroke:#fe34a7;stroke-width:12.5px;" />
        <path d="M2676.5,963.146l-101.414,-46.361l-7.559,56.052l-55.39,0.449l-45.197,102.101"
            style="fill:none;stroke:#edd2f2;stroke-width:12.5px;" />
        <path d="M2142.89,1178.92l14.401,-24.384l36.684,88.159l22.722,-18.92l15.76,-29.246l13.276,54.956l-69.138,34.428"
            style="fill:none;stroke:#dbfe98;stroke-width:12.5px;" />
        <path d="M2020.2,1470.66l14.401,24.384l36.684,-88.159l22.722,18.92l15.76,29.246l13.277,-54.956l-69.139,-34.428"
            style="fill:none;stroke:#dbfe98;stroke-width:12.5px;" />
        <path d="M2280.85,1062.21l14.401,24.384l36.684,-88.159l22.722,18.92l15.76,29.246l13.277,-54.956l-69.139,-34.428"
            style="fill:none;stroke:#dbfe98;stroke-width:12.5px;" />
        <path
            d="M2622.41,1220.65l-14.401,24.385l-36.684,-88.159l-22.722,18.919l-15.76,29.246l-13.277,-54.956l69.139,-34.428"
            style="fill:none;stroke:#dbfe98;stroke-width:12.5px;" />
        <path
            d="M2499.72,1428.93l-14.401,-24.385l-36.684,88.159l-22.722,-18.919l-15.76,-29.247l-13.276,54.956l69.138,34.428"
            style="fill:none;stroke:#dbfe98;stroke-width:12.5px;" />
        <path d="M2070.31,1154.53l-32.134,49.37l45.115,-26.095l0,47.665l21.695,-59.723l38.51,92.037l13.802,-62.597"
            style="fill:none;stroke:#ffcf00;stroke-width:12.5px;" />
        <path d="M1947.61,1495.05l-32.134,-49.37l45.115,26.095l-0,-47.665l21.695,59.723l38.509,-92.038l13.802,62.598"
            style="fill:none;stroke:#ffcf00;stroke-width:12.5px;" />
        <path
            d="M2208.26,1086.59l-32.133,-49.37c-0,-0 37.595,29.69 45.115,26.095c7.519,-3.595 -0,-47.665 -0,-47.665l21.694,59.723l38.51,-92.038l13.802,62.598"
            style="fill:none;stroke:#ffcf00;stroke-width:12.5px;" />
        <path d="M2572.3,1404.54l32.133,49.37l-45.114,-26.094l-0,47.664l-21.695,-59.722l-38.51,92.037l-13.802,-62.598"
            style="fill:none;stroke:#ffcf00;stroke-width:12.5px;" />
    </g>
    <g id="confetti">
        <path d="M115.965,-21.117l1.314,86.582l21.15,-30.68l55.001,31.36"
            style="fill:none;stroke:#7607d2;stroke-width:12.5px;" />
        <path d="M226.748,693.818l1.314,-86.582l21.15,30.68l55.002,-31.36"
            style="fill:none;stroke:#7607d2;stroke-width:12.5px;" />
        <path d="M566.954,121.945l-1.314,86.582l-21.151,-30.68l-55.001,31.36"
            style="fill:none;stroke:#7607d2;stroke-width:12.5px;" />
        <path d="M677.737,550.756l-1.314,-86.582l-21.15,30.68l-55.002,-31.36"
            style="fill:none;stroke:#7607d2;stroke-width:12.5px;" />
        <path d="M20.793,509.828l-1.315,-86.582l-21.15,30.68l-55.001,-31.36"
            style="fill:none;stroke:#7607d2;stroke-width:12.5px;" />
        <path d="M442.394,181.962l-1.314,-86.582l-21.15,30.679l-55.002,-31.359"
            style="fill:none;stroke:#7607d2;stroke-width:12.5px;" />
        <path d="M553.178,490.739l-1.314,86.582l-21.151,-30.679l-55.001,31.359"
            style="fill:none;stroke:#7607d2;stroke-width:12.5px;" />
        <path d="M231.437,301.838l10.401,-63.396l21.151,30.679l55.001,-31.359"
            style="fill:none;stroke:#7607d2;stroke-width:12.5px;" />
        <path d="M351.308,347.677l1.314,86.582l21.15,-30.679l55.001,31.359"
            style="fill:none;stroke:#7607d2;stroke-width:12.5px;" />
        <path d="M249.212,662.879l91.567,41.858l6.825,-50.608l50.011,-0.405l40.808,-92.188"
            style="fill:none;stroke:#edd2f2;stroke-width:12.5px;" />
        <path d="M419.93,151.022l-91.566,41.859l-6.826,-50.608l-50.011,-0.406l-40.808,-92.187"
            style="fill:none;stroke:#edd2f2;stroke-width:12.5px;" />
        <path d="M530.713,521.679l-91.566,-41.859l-6.825,50.608l-50.012,0.406l-40.808,92.187"
            style="fill:none;stroke:#edd2f2;stroke-width:12.5px;" />
        <path d="M262.989,294.084l91.566,41.859l6.825,-50.608l50.011,-0.406l40.808,-92.187"
            style="fill:none;stroke:#edd2f2;stroke-width:12.5px;" />
        <path d="M373.772,378.617l91.566,-41.859l6.826,50.608l50.011,0.406l40.808,92.187"
            style="fill:none;stroke:#edd2f2;stroke-width:12.5px;" />
        <path
            d="M122.426,643.972l-0.136,39.457l36.383,-29.983l14.812,34.62l-56.486,31.934l-51.789,-50.693l14.745,-36.17"
            style="fill:none;stroke:#fe34a7;stroke-width:12.5px;" />
        <path
            d="M671.276,171.791l0.135,-39.457l-36.382,29.983l-14.812,-34.62l56.486,-31.934l51.789,50.693l-14.745,36.17"
            style="fill:none;stroke:#fe34a7;stroke-width:12.5px;" />
        <path d="M782.059,500.91l0.136,39.457l-36.382,-29.983l-14.812,34.62l56.485,31.934l51.789,-50.693l-14.745,-36.17"
            style="fill:none;stroke:#fe34a7;stroke-width:12.5px;" />
        <path
            d="M14.331,212.719l0.136,-39.458l-36.383,29.984l-14.811,-34.62l56.485,-31.934l51.789,50.692l-14.745,36.171"
            style="fill:none;stroke:#fe34a7;stroke-width:12.5px;" />
        <path
            d="M125.114,459.982l0.136,39.458l-36.382,-29.984l-14.812,34.62l56.485,31.934l51.79,-50.692l-14.746,-36.171"
            style="fill:none;stroke:#fe34a7;stroke-width:12.5px;" />
        <path
            d="M136.202,275.177l-0.136,39.458l36.383,-29.983l14.812,34.619l-56.486,31.935l-51.789,-50.693l14.745,-36.17"
            style="fill:none;stroke:#fe34a7;stroke-width:12.5px;" />
        <path
            d="M246.986,397.524l-0.136,-39.458l36.382,29.983l14.812,-34.619l-56.485,-31.935l-51.79,50.693l14.746,36.17"
            style="fill:none;stroke:#fe34a7;stroke-width:12.5px;" />
        <path d="M62.701,61.581l13.003,-22.017l33.122,79.599l20.515,-17.083l14.23,-26.406l11.987,49.619l-62.425,31.085"
            style="fill:none;stroke:#dbfe98;stroke-width:12.5px;" />
        <path d="M138.429,9.822l91.566,-41.858l6.826,50.608l50.011,0.405l40.808,92.188"
            style="fill:none;stroke:#edd2f2;stroke-width:12.5px;" />
        <path d="M11.643,28.729l-0.136,-39.457l36.382,29.983l14.812,-34.62l-56.485,-31.934l-51.79,50.693l14.746,36.17"
            style="fill:none;stroke:#fe34a7;stroke-width:12.5px;" />
        <path
            d="M173.485,611.12l13.002,22.017l33.122,-79.599l20.516,17.083l14.229,26.406l11.988,-49.619l-62.426,-31.085"
            style="fill:none;stroke:#dbfe98;stroke-width:12.5px;" />
        <path
            d="M620.217,204.643l-13.002,-22.017l-33.122,79.599l-20.516,-17.083l-14.23,-26.406l-11.987,49.619l62.425,31.085"
            style="fill:none;stroke:#dbfe98;stroke-width:12.5px;" />
        <path
            d="M731.001,468.058l-13.003,22.017l-33.122,-79.599l-20.515,17.083l-14.23,26.406l-11.987,-49.619l62.425,-31.085"
            style="fill:none;stroke:#dbfe98;stroke-width:12.5px;" />
        <path
            d="M74.056,427.13l-13.003,22.017l-33.122,-79.598l-20.515,17.082l-14.23,26.406l-11.987,-49.619l62.425,-31.085"
            style="fill:none;stroke:#dbfe98;stroke-width:12.5px;" />
        <path
            d="M495.658,99.264l-13.003,22.017l-33.122,-79.599l-20.515,17.083l-14.23,26.406l-11.987,-49.62l62.425,-31.085"
            style="fill:none;stroke:#dbfe98;stroke-width:12.5px;" />
        <path
            d="M606.441,573.437l-13.002,-22.017l-33.122,79.599l-20.516,-17.083l-14.23,-26.406l-11.987,49.62l62.425,31.085"
            style="fill:none;stroke:#dbfe98;stroke-width:12.5px;" />
        <path d="M187.261,242.326l13.002,22.017l33.122,-79.599l20.516,17.083l14.23,26.406l11.987,-49.62l-62.425,-31.085"
            style="fill:none;stroke:#dbfe98;stroke-width:12.5px;" />
        <path d="M298.044,430.375l13.003,-22.017l33.122,79.599l20.515,-17.083l14.23,-26.406l11.987,49.62l-62.425,31.085"
            style="fill:none;stroke:#dbfe98;stroke-width:12.5px;" />
        <path d="M-2.837,39.564l-29.014,44.576l40.734,-23.561l0,43.036l19.589,-53.923l34.77,83.101l12.462,-56.52"
            style="fill:none;stroke:#ffcf00;stroke-width:12.5px;" />
        <path d="M107.946,633.137l-29.013,-44.576l40.734,23.561l-0,-43.037l19.588,53.924l34.77,-83.101l12.462,56.52"
            style="fill:none;stroke:#ffcf00;stroke-width:12.5px;" />
        <path d="M685.756,182.626l29.013,44.576l-40.734,-23.561l0,43.036l-19.588,-53.923l-34.771,83.1l-12.461,-56.519"
            style="fill:none;stroke:#ffcf00;stroke-width:12.5px;" />
        <path d="M796.539,490.075l29.014,-44.576l-40.734,23.561l-0,-43.036l-19.589,53.923l-34.77,-83.101l-12.462,56.52"
            style="fill:none;stroke:#ffcf00;stroke-width:12.5px;" />
        <path d="M28.811,223.554l29.013,44.576l-40.734,-23.561l0,43.036l-19.588,-53.923l-34.77,83.1l-12.462,-56.519"
            style="fill:none;stroke:#ffcf00;stroke-width:12.5px;" />
        <path id="_7" serif:id="7"
            d="M139.594,449.147l29.014,-44.576l-40.734,23.561l-0,-43.036l-19.589,53.923l-34.77,-83.1l-12.462,56.519"
            style="fill:none;stroke:#ffcf00;stroke-width:12.5px;" />
        <path id="_6" serif:id="6"
            d="M561.196,121.281l29.014,-44.576c-0,-0 -33.945,26.806 -40.734,23.56c-6.789,-3.245 -0,-43.036 -0,-43.036l-19.589,53.924l-34.77,-83.101l-12.462,56.52"
            style="fill:none;stroke:#ffcf00;stroke-width:12.5px;" />
        <path id="_5" serif:id="5"
            d="M671.98,551.42l29.013,44.576l-40.734,-23.56l-0,43.036l-19.588,-53.924l-34.771,83.101l-12.461,-56.52"
            style="fill:none;stroke:#ffcf00;stroke-width:12.5px;" />
        <path id="_3" serif:id="3"
            d="M15.035,510.492l29.013,44.577l-40.734,-23.561l0,43.036l-19.588,-53.924l-34.77,83.101l-12.462,-56.52"
            style="fill:none;stroke:#ffcf00;stroke-opacity:0.3;stroke-width:12.5px;" />
        <path id="_2" serif:id="2"
            d="M121.722,254.319l-29.013,-44.576l40.734,23.561l-0,-43.037l19.588,53.924l34.77,-83.101l12.462,56.52"
            style="fill:none;stroke:#ffcf00;stroke-width:12.5px;" />
        <path id="_1" serif:id="1"
            d="M232.506,408.358l-29.014,44.576l40.734,-23.56l0,43.036l19.589,-53.924l34.77,83.101l12.462,-56.52"
            style="fill:none;stroke:#ffcf00;stroke-width:12.5px;" />
    </g>
</svg>